# xmcd CD database file
#
# Track frame offsets:
#	150
#	13207
#	28771
#	42539
#	55648
#	69991
#	84541
#	98214
#	110908
#	123699
#	137109
#	147592
#	161431
#	175888
#	187998
#	195605
#	210009
#	226421
#	238442
#	253649
#	267854
#	280287
#	288475
#	303540
#	314571
#
# Disc length: 4376 seconds
#
# Revision: 1
# Processed by: cddbd v1.5.2PL0 Copyright (c) Steve Scherf et al.
# Submitted via: CDex 1.51
#
DISCID=7e111619
DTITLE=Billie Holiday - Portrait
DYEAR=2005
DGENRE=Jazz
TTITLE0=That Ole Devil Called Love
TTITLE1=I Can't Give You Anything But Love
TTITLE2=Twenty Four Hours A Day
TTITLE3=St Louis Blues
TTITLE4=As Time Goes By
TTITLE5=Trav'lin' Light
TTITLE6=Pennies From Heaven
TTITLE7=A Sailboat In The Moonlight
TTITLE8=Long Gone Blues
TTITLE9=Some Other Spring
TTITLE10=T'aint Nobodys Business
TTITLE11=Night And Day
TTITLE12=He's Funny That Way
TTITLE13=A Fine Romance
TTITLE14=All Of Me
TTITLE15=Easy Living
TTITLE16=Stormy Weather
TTITLE17=Back In Your Own Back Yard
TTITLE18=Don't Explain
TTITLE19=This Years Kisses
TTITLE20=Let's Do It
TTITLE21=Swing Brother Swing
TTITLE22=They Can't Take That Away From Me
TTITLE23=No Regrets
TTITLE24=The Way You Look Tonigth
EXTD=YEAR: 2005
EXTT0=
EXTT1=
EXTT2=
EXTT3=
EXTT4=
EXTT5=
EXTT6=
EXTT7=
EXTT8=
EXTT9=
EXTT10=
EXTT11=
EXTT12=
EXTT13=
EXTT14=
EXTT15=
EXTT16=
EXTT17=
EXTT18=
EXTT19=
EXTT20=
EXTT21=
EXTT22=
EXTT23=
EXTT24=
PLAYORDER=
